<svg width="142" height="16" viewBox="0 0 142 16" fill="none" xmlns="http://www.w3.org/2000/svg">
<path d="M0 15.5989L4.5123 0.545898H7.54456L12.0208 15.5989H9.09679L8.33873 12.8915H3.53764L2.81567 15.5989H0ZM4.18741 10.473H7.68896L5.92014 4.08354L4.18741 10.473Z" fill="#B40000"/>
<path d="M17.7242 0.427246H14.8363V15.5886H17.7242V0.427246Z" fill="black"/>
<path d="M29.2738 15.5886L27.0718 10.0294H24.6894V15.5886H21.8015V0.427246H27.144C30.1402 0.427246 32.3422 2.30436 32.3422 5.12004C32.3422 7.06935 31.4037 8.54938 29.9597 9.34355L32.4505 15.5886H29.2738ZM24.6894 2.95413V7.53863H26.8192C28.4075 7.53863 29.3821 6.63617 29.3821 5.22833C29.3821 3.85659 28.4075 2.95413 26.8192 2.95413H24.6894Z" fill="black"/>
<path d="M35.627 0.427246H41.1501C43.9297 0.427246 45.9151 1.97948 45.9151 4.43417C45.9151 6.0586 45.1209 7.21375 43.7131 7.79132V7.82742C45.3375 8.36889 46.276 9.63234 46.276 11.4373C46.276 14.0363 44.3267 15.6247 41.5472 15.6247H35.627V0.427246ZM38.4788 2.73754V6.67227H40.7891C42.1247 6.67227 42.955 5.9503 42.955 4.65076C42.955 3.42341 42.0886 2.73754 40.753 2.73754H38.4788ZM38.4788 9.05476V13.2422H41.0418C42.4857 13.2422 43.316 12.448 43.316 11.1485C43.316 9.92113 42.4496 9.05476 41.0779 9.05476H38.4788Z" fill="black"/>
<path d="M59.5991 0.577148V10.8291C59.5991 13.9336 57.5054 15.8829 54.401 15.8829C51.2965 15.8829 49.2028 13.9336 49.2028 10.8291V0.577148H52.0546V10.793C52.0546 12.3091 52.9209 13.3199 54.401 13.3199C55.8449 13.3199 56.7474 12.3452 56.7474 10.793V0.577148H59.5991Z" fill="black"/>
<path d="M68.5138 7.76115H73.4593V10.8295C73.4593 13.934 71.3656 15.8833 68.225 15.8833C65.0484 15.8833 62.8464 13.934 62.8464 10.7573V5.12597C62.8464 1.98541 64.8679 0 68.2611 0C71.4017 0 73.4593 1.84102 73.4593 4.80108V5.16207H70.6436V4.80108C70.6436 3.46544 69.8134 2.56299 68.225 2.56299C66.6728 2.56299 65.7342 3.57374 65.7342 5.12597V10.6851C65.7342 12.2374 66.6367 13.2481 68.1528 13.2481C69.7773 13.2481 70.7158 12.2735 70.7158 10.7934V10.0714H68.4777V7.76115H68.5138Z" fill="black"/>
<path d="M82.0866 7.76115H87.0321V10.8295C87.0321 13.934 84.9384 15.8833 81.7978 15.8833C78.6212 15.8833 76.4192 13.934 76.4192 10.7573V5.12597C76.4192 1.98541 78.4407 0 81.8339 0C84.9745 0 87.0321 1.84102 87.0321 4.80108V5.16207H84.2164V4.80108C84.2164 3.46544 83.3861 2.56299 81.7978 2.56299C80.2456 2.56299 79.307 3.57374 79.307 5.12597V10.6851C79.307 12.2374 80.2095 13.2481 81.7256 13.2481C83.35 13.2481 84.2886 12.2735 84.2886 10.7934V10.0714H82.0505V7.76115H82.0866Z" fill="black"/>
<path d="M92.0495 0.469727L94.793 6.60645L97.5365 0.469727H100.424L96.1647 9.34993V15.4867H93.2769V9.42213L88.9812 0.469727H92.0495Z" fill="black"/>
<path d="M119.81 0.254184C121.074 0.181987 122.409 0.218086 123.637 0.57907C124.9 0.976152 126.055 1.66202 126.38 2.99766C126.886 5.23576 124.936 7.11288 123.023 7.90704C120.785 8.8456 118.33 9.06219 115.912 8.8095C115.839 8.8095 115.334 8.70121 115.334 8.70121C115.262 8.70121 115.045 9.13439 115.009 9.17049C114.395 10.3617 113.962 11.2281 113.457 12.4554C112.915 13.755 112.627 14.513 112.41 15.6682V15.7043C112.338 16.1014 111.941 16.0292 111.652 15.8848C111.291 15.7404 110.822 15.1989 110.677 14.874C110.316 14.0799 110.605 13.3579 110.894 12.5998C111.544 10.9032 112.482 9.31488 113.385 7.72655C113.385 7.69045 113.132 7.50996 113.132 7.50996C113.024 7.40167 112.915 7.32947 112.807 7.22117C112.591 6.93239 112.41 6.49921 112.735 6.21042C112.915 6.06603 113.132 5.95773 113.349 5.92163C113.385 5.92163 113.385 5.92163 113.421 5.92163C113.421 5.92163 113.457 5.95773 113.457 5.99383C113.493 6.28262 113.674 6.5353 113.926 6.7158C114.432 5.84944 114.72 5.41625 115.262 4.62209C115.803 3.86402 116.453 3.14206 117.067 2.42009C117.175 2.27569 117.319 2.1313 117.428 1.98691C117.5 1.91471 117.644 1.66202 117.753 1.58982C117.103 1.84251 116.417 2.1674 115.767 2.56448C114.107 3.57524 112.591 4.69429 111.472 6.24652C110.966 6.93239 110.533 7.76265 110.425 8.59291C110.389 8.8095 110.497 9.09829 110.172 9.09829C109.991 9.09829 109.775 8.99 109.558 8.8817C109.342 8.73731 109.125 8.59291 108.909 8.37632C108.439 7.83485 108.692 7.14898 108.981 6.6075C109.775 4.94698 111.038 3.61134 112.627 2.63668C113.529 2.0952 114.504 1.58982 115.478 1.19274C115.623 1.12055 115.767 1.08445 115.948 1.01225C117.067 0.651267 118.439 0.362479 119.81 0.254184ZM119.882 1.19274C119.233 1.22884 118.583 1.33714 117.933 1.55373C118.005 1.51763 118.186 1.62592 118.258 1.62592C118.402 1.66202 118.511 1.73422 118.619 1.80642C118.98 2.02301 119.377 2.27569 119.594 2.63668C119.81 2.96156 119.666 3.35865 119.377 3.57524C118.583 4.18891 117.933 4.91088 117.283 5.66894C116.67 6.39091 116.236 6.89629 115.803 7.69045C116.453 7.90704 117.283 7.83485 117.969 7.79875C119.341 7.65436 120.821 7.22117 121.94 6.39091C122.554 5.92163 123.095 5.34406 123.456 4.65819C123.817 3.97232 123.998 3.17815 123.637 2.45619C122.987 1.19274 121.182 1.12055 119.882 1.19274Z" fill="black"/>
<path d="M129.449 11.0157C128.222 12.5318 126.273 13.3621 124.287 13.7953C124.251 13.7953 124.323 14.1202 124.323 14.1563C124.36 14.2646 124.432 14.409 124.504 14.5173C124.829 14.9143 125.406 14.9865 125.912 14.9143C126.453 14.8421 127.031 14.6977 127.536 14.4812C128.8 13.9758 130.063 13.1094 131.038 12.2431C132.012 11.4128 133.095 10.1133 133.962 8.88591C133.962 8.84981 133.673 9.68007 133.673 9.71617C133.673 9.78837 133.709 9.96886 133.745 10.005C133.889 10.0772 133.853 10.2937 133.745 10.4381C133.059 11.5572 132.121 12.5318 131.074 13.3621C130.568 13.7953 129.919 14.1563 129.377 14.5534C128.908 14.8782 128.222 15.167 127.681 15.3836C127.103 15.6002 126.525 15.7446 125.912 15.8529C125.37 15.9251 124.793 15.9251 124.251 15.889C123.529 15.8529 122.735 15.6724 122.266 15.1309C121.869 14.6977 121.724 14.0841 121.833 13.5065C121.905 12.9289 122.23 12.4236 122.555 11.9543C123.493 10.7269 124.865 9.86057 126.381 9.35519C127.067 9.1386 127.789 8.9942 128.511 9.0664C129.052 9.1386 129.63 9.35519 129.774 9.82447C129.955 10.2576 129.702 10.6908 129.449 11.0157ZM128.33 9.96886C127.861 9.93276 127.356 10.1855 126.995 10.3659C126.598 10.5825 126.237 10.8352 125.912 11.124C125.587 11.4128 125.226 11.7738 124.973 12.0987C124.72 12.4236 124.468 12.8206 124.36 13.0733C125.226 12.8567 126.164 12.4596 126.886 12.0626C127.247 11.846 127.608 11.5933 127.933 11.3045C128.078 11.1601 128.258 11.0157 128.403 10.8352C128.547 10.6908 128.691 10.5103 128.763 10.3298C128.836 10.1855 128.8 10.005 128.619 9.93276C128.475 10.005 128.403 10.005 128.33 9.96886Z" fill="black"/>
<path d="M132.591 9.3139C132.374 9.34999 132.157 9.34999 131.977 9.2417C131.941 9.2056 131.869 9.1695 131.869 9.09731C131.76 8.80852 132.266 8.59193 132.518 8.51973C132.807 8.41144 133.06 8.33924 133.313 8.23094C133.782 8.05045 134.251 7.90606 134.72 7.79776C135.406 6.78701 136.417 5.12648 136.706 4.40452C136.85 4.36842 137.067 4.36842 137.319 4.40452C137.572 4.47671 137.825 4.54891 138.078 4.6933C138.33 4.8377 138.511 4.98209 138.655 5.12648C138.799 5.30697 138.836 5.45137 138.763 5.63186C138.727 5.70406 138.655 5.81235 138.547 5.95675C138.475 6.10114 137.825 7.0397 137.717 7.18409C138.186 7.11189 138.619 7.0758 139.088 7.0397C139.521 7.0036 139.991 7.0036 140.46 7.0036C140.604 7.0036 140.749 7.0036 140.893 7.0036C141.074 7.0036 141.218 7.0036 141.326 7.0397C141.362 7.14799 141.399 7.25629 141.362 7.36458C141.326 7.47288 141.29 7.58117 141.218 7.68947C141.146 7.79776 141.038 7.86996 140.929 7.94216C140.821 8.01435 140.677 8.05045 140.568 8.01435C140.424 8.01435 140.28 7.97826 140.135 7.97826C139.991 7.97826 139.846 7.97826 139.702 7.97826C139.269 7.97826 138.799 7.97826 138.366 8.01435C137.933 8.05045 137.464 8.08655 136.995 8.15875C136.85 8.33924 136.706 8.51973 136.561 8.73632C136.417 8.91681 136.273 9.09731 136.128 9.2778L136.02 9.45829C135.912 9.60268 135.767 9.81927 135.551 10.072C135.37 10.3247 135.154 10.6134 134.901 10.9383C134.684 11.2632 134.432 11.5881 134.215 11.9491C133.962 12.3101 133.782 12.6349 133.565 12.9598C133.385 13.2847 133.204 13.5735 133.096 13.8623C132.988 14.1511 132.915 14.3677 132.915 14.5121C132.915 14.5843 132.952 14.6926 133.024 14.6926C133.204 14.7648 133.529 14.6565 133.71 14.6204C133.926 14.5482 134.143 14.4399 134.323 14.3316C134.648 14.1511 134.937 13.9345 135.226 13.7179C135.515 13.5013 135.767 13.2486 136.02 12.9959C136.309 12.7071 136.561 12.4184 136.814 12.1296C136.886 12.0213 136.995 11.9491 137.067 11.8408C137.103 11.8047 137.175 11.7686 137.283 11.8047C137.392 11.8047 137.5 11.8408 137.608 11.8769C137.717 11.913 137.789 11.9852 137.861 12.0213C137.933 12.0935 137.933 12.1296 137.897 12.2018L137.428 12.7432C137.031 13.1764 136.597 13.6457 136.128 14.0789C135.623 14.5482 135.045 15.0174 134.395 15.3423C133.818 15.6672 132.988 15.8116 132.302 15.8116C131.796 15.8116 131.399 15.6672 131.183 15.4145C130.93 15.1618 130.822 14.8369 130.822 14.476C130.822 14.4038 130.822 14.2955 130.858 14.2233C130.858 14.115 130.894 14.0428 130.93 13.9706C131.002 13.5735 131.147 13.1764 131.363 12.7793C131.544 12.3823 131.76 11.9852 132.013 11.6242C132.266 11.2271 132.518 10.8661 132.771 10.469C133.06 10.072 133.313 9.71098 133.601 9.34999L133.962 8.88071C133.71 8.95291 133.674 8.95291 133.421 9.06121C133.276 9.0973 133.096 9.1695 132.952 9.2056C132.843 9.2417 132.735 9.3139 132.591 9.3139Z" fill="black"/>
<path d="M103.494 15.4505C104.431 15.4505 105.191 14.7232 105.191 13.8261C105.191 12.9289 104.431 12.2017 103.494 12.2017C102.557 12.2017 101.798 12.9289 101.798 13.8261C101.798 14.7232 102.557 15.4505 103.494 15.4505Z" fill="black"/>
</svg>
