<svg width="102" height="16" viewBox="0 0 102 16" fill="none" xmlns="http://www.w3.org/2000/svg">
<path d="M0 15.7078L4.54492 0.545898H7.59911L12.1077 15.7078H9.16256L8.39902 12.9808H3.56322L2.83603 15.7078H0ZM4.21769 10.5447H7.74455L5.96294 4.10912L4.21769 10.5447Z" fill="#B40000"/>
<path d="M17.8502 0.436523H14.9414V15.7075H17.8502V0.436523Z" fill="black"/>
<path d="M29.488 15.7075L27.2701 10.1081H24.8704V15.7075H21.9616V0.436523H27.3428C30.3606 0.436523 32.5786 2.32721 32.5786 5.16324C32.5786 7.12665 31.6332 8.61739 30.1788 9.41729L32.6876 15.7075H29.488ZM24.8704 2.98168V7.59932H27.0156C28.6154 7.59932 29.5971 6.69034 29.5971 5.27232C29.5971 3.89067 28.6154 2.98168 27.0156 2.98168H24.8704Z" fill="black"/>
<path d="M35.8879 0.436523H41.4508C44.2505 0.436523 46.2503 1.99998 46.2503 4.47241C46.2503 6.10859 45.4504 7.27209 44.0324 7.85384V7.8902C45.6685 8.43559 46.6139 9.70817 46.6139 11.5261C46.6139 14.144 44.6505 15.7438 41.8508 15.7438H35.8879V0.436523ZM38.7603 2.76352V6.7267H41.0873C42.4326 6.7267 43.2688 5.99951 43.2688 4.69057C43.2688 3.45435 42.3962 2.76352 41.0509 2.76352H38.7603ZM38.7603 9.12641V13.3441H41.3418C42.7961 13.3441 43.6324 12.5442 43.6324 11.2353C43.6324 9.99904 42.7598 9.12641 41.3781 9.12641H38.7603Z" fill="black"/>
<path d="M60.0306 0.583496V10.9096C60.0306 14.0365 57.9217 15.9999 54.7948 15.9999C51.6679 15.9999 49.5591 14.0365 49.5591 10.9096V0.583496H52.4314V10.8732C52.4314 12.4003 53.3041 13.4184 54.7948 13.4184C56.2492 13.4184 57.1582 12.4367 57.1582 10.8732V0.583496H60.0306Z" fill="black"/>
<path d="M69.0097 7.81726H73.9909V10.9078C73.9909 14.0347 71.8821 15.9981 68.7188 15.9981C65.5192 15.9981 63.3012 14.0347 63.3012 10.8351V5.16303C63.3012 1.99977 65.3374 0 68.7551 0C71.9184 0 73.9909 1.85433 73.9909 4.8358V5.19939H71.1549V4.8358C71.1549 3.4905 70.3186 2.58151 68.7188 2.58151C67.1553 2.58151 66.21 3.59958 66.21 5.16303V10.7624C66.21 12.3258 67.119 13.3439 68.6461 13.3439C70.2822 13.3439 71.2276 12.3622 71.2276 10.8715V10.1443H68.9733V7.81726H69.0097Z" fill="black"/>
<path d="M82.6811 7.81726H87.6623V10.9078C87.6623 14.0347 85.5535 15.9981 82.3902 15.9981C79.1906 15.9981 76.9727 14.0347 76.9727 10.8351V5.16303C76.9727 1.99977 79.0088 0 82.4266 0C85.5898 0 87.6623 1.85433 87.6623 4.8358V5.19939H84.8263V4.8358C84.8263 3.4905 83.99 2.58151 82.3902 2.58151C80.8268 2.58151 79.8814 3.59958 79.8814 5.16303V10.7624C79.8814 12.3258 80.7904 13.3439 82.3175 13.3439C83.9537 13.3439 84.899 12.3622 84.899 10.8715V10.1443H82.6447V7.81726H82.6811Z" fill="black"/>
<path d="M92.7185 0.474121L95.4819 6.65522L98.2452 0.474121H101.154L96.8635 9.41853V15.5996H93.9548V9.49125L89.628 0.474121H92.7185Z" fill="black"/>
</svg>
