<svg width="159" height="42" viewBox="0 0 159 42" fill="none" xmlns="http://www.w3.org/2000/svg">
<path d="M20 9V7C20 5.9 19.1 5 18 5H15C15 3.34 13.66 2 12 2C10.34 2 9 3.34 9 5H6C4.9 5 4 5.9 4 7V9C2.34 9 1 10.34 1 12C1 13.66 2.34 15 4 15V19C4 20.1 4.9 21 6 21H18C19.1 21 20 20.1 20 19V15C21.66 15 23 13.66 23 12C23 10.34 21.66 9 20 9ZM7.5 11.5C7.5 10.67 8.17 10 9 10C9.83 10 10.5 10.67 10.5 11.5C10.5 12.33 9.83 13 9 13C8.17 13 7.5 12.33 7.5 11.5ZM16 17H8V15H16V17ZM15 13C14.17 13 13.5 12.33 13.5 11.5C13.5 10.67 14.17 10 15 10C15.83 10 16.5 10.67 16.5 11.5C16.5 12.33 15.83 13 15 13Z" fill="black"/>
<path d="M36.7266 4.28125V18.5H33.3086V4.28125H36.7266ZM51.8137 4.28125V18.5H48.3957L43.3664 9.65234V18.5H39.9387V4.28125H43.3664L48.3957 13.1289V4.28125H51.8137ZM66.6566 4.28125V18.5H63.2387L58.2094 9.65234V18.5H54.7816V4.28125H58.2094L63.2387 13.1289V4.28125H66.6566ZM81.6559 11.1074V11.6836C81.6559 12.7708 81.5029 13.7474 81.1969 14.6133C80.8974 15.4727 80.471 16.2083 79.9176 16.8203C79.3642 17.4258 78.7099 17.8913 77.9547 18.2168C77.1995 18.5358 76.3661 18.6953 75.4547 18.6953C74.5367 18.6953 73.6969 18.5358 72.9352 18.2168C72.1799 17.8913 71.5224 17.4258 70.9625 16.8203C70.4091 16.2083 69.9794 15.4727 69.6734 14.6133C69.374 13.7474 69.2242 12.7708 69.2242 11.6836V11.1074C69.2242 10.0202 69.374 9.04362 69.6734 8.17773C69.9794 7.31185 70.4059 6.57617 70.9527 5.9707C71.5061 5.35872 72.1604 4.89323 72.9156 4.57422C73.6773 4.2487 74.5172 4.08594 75.4352 4.08594C76.3466 4.08594 77.1799 4.2487 77.9352 4.57422C78.6969 4.89323 79.3544 5.35872 79.9078 5.9707C80.4612 6.57617 80.8909 7.31185 81.1969 8.17773C81.5029 9.04362 81.6559 10.0202 81.6559 11.1074ZM78.1793 11.6836V11.0879C78.1793 10.3848 78.1174 9.76628 77.9938 9.23242C77.8766 8.69206 77.7008 8.23958 77.4664 7.875C77.232 7.51042 76.9423 7.23698 76.5973 7.05469C76.2587 6.86589 75.8714 6.77148 75.4352 6.77148C74.9794 6.77148 74.5823 6.86589 74.2438 7.05469C73.9052 7.23698 73.622 7.51042 73.3941 7.875C73.1663 8.23958 72.9938 8.69206 72.8766 9.23242C72.7659 9.76628 72.7105 10.3848 72.7105 11.0879V11.6836C72.7105 12.3802 72.7659 12.9987 72.8766 13.5391C72.9938 14.0729 73.1663 14.5254 73.3941 14.8965C73.6285 15.2676 73.915 15.5475 74.2535 15.7363C74.5986 15.9251 74.999 16.0195 75.4547 16.0195C75.8909 16.0195 76.2783 15.9251 76.6168 15.7363C76.9553 15.5475 77.2385 15.2676 77.4664 14.8965C77.7008 14.5254 77.8766 14.0729 77.9938 13.5391C78.1174 12.9987 78.1793 12.3802 78.1793 11.6836ZM89.3992 15.1504L92.3582 4.28125H96.1961L91.4012 18.5H88.9207L89.3992 15.1504ZM86.7137 4.28125L89.6727 15.1504L90.1707 18.5H87.6609L82.8953 4.28125H86.7137ZM103.324 7.26953L99.8574 18.5H96.1758L101.4 4.28125H103.734L103.324 7.26953ZM106.195 18.5L102.719 7.26953L102.27 4.28125H104.633L109.887 18.5H106.195ZM106.059 13.1973V15.8438H98.7637V13.1973H106.059ZM117.445 4.28125V18.5H114.017V4.28125H117.445ZM121.722 4.28125V6.92773H109.837V4.28125H121.722ZM127.62 4.28125V18.5H124.202V4.28125H127.62ZM142.863 11.1074V11.6836C142.863 12.7708 142.71 13.7474 142.404 14.6133C142.104 15.4727 141.678 16.2083 141.125 16.8203C140.571 17.4258 139.917 17.8913 139.162 18.2168C138.407 18.5358 137.573 18.6953 136.662 18.6953C135.744 18.6953 134.904 18.5358 134.142 18.2168C133.387 17.8913 132.729 17.4258 132.17 16.8203C131.616 16.2083 131.186 15.4727 130.88 14.6133C130.581 13.7474 130.431 12.7708 130.431 11.6836V11.1074C130.431 10.0202 130.581 9.04362 130.88 8.17773C131.186 7.31185 131.613 6.57617 132.16 5.9707C132.713 5.35872 133.367 4.89323 134.123 4.57422C134.884 4.2487 135.724 4.08594 136.642 4.08594C137.554 4.08594 138.387 4.2487 139.142 4.57422C139.904 4.89323 140.561 5.35872 141.115 5.9707C141.668 6.57617 142.098 7.31185 142.404 8.17773C142.71 9.04362 142.863 10.0202 142.863 11.1074ZM139.386 11.6836V11.0879C139.386 10.3848 139.324 9.76628 139.201 9.23242C139.084 8.69206 138.908 8.23958 138.673 7.875C138.439 7.51042 138.149 7.23698 137.804 7.05469C137.466 6.86589 137.078 6.77148 136.642 6.77148C136.186 6.77148 135.789 6.86589 135.451 7.05469C135.112 7.23698 134.829 7.51042 134.601 7.875C134.373 8.23958 134.201 8.69206 134.084 9.23242C133.973 9.76628 133.918 10.3848 133.918 11.0879V11.6836C133.918 12.3802 133.973 12.9987 134.084 13.5391C134.201 14.0729 134.373 14.5254 134.601 14.8965C134.836 15.2676 135.122 15.5475 135.461 15.7363C135.806 15.9251 136.206 16.0195 136.662 16.0195C137.098 16.0195 137.485 15.9251 137.824 15.7363C138.162 15.5475 138.446 15.2676 138.673 14.8965C138.908 14.5254 139.084 14.0729 139.201 13.5391C139.324 12.9987 139.386 12.3802 139.386 11.6836ZM157.315 4.28125V18.5H153.897L148.868 9.65234V18.5H145.44V4.28125H148.868L153.897 13.1289V4.28125H157.315Z" fill="black"/>
<path d="M5.33203 36.7832H5.93262C5.88379 37.2617 5.75195 37.6751 5.53711 38.0234C5.32227 38.3685 5.0293 38.6338 4.6582 38.8193C4.28711 39.0049 3.83952 39.0977 3.31543 39.0977C2.91178 39.0977 2.54557 39.0212 2.2168 38.8682C1.89128 38.7152 1.61133 38.4987 1.37695 38.2188C1.14258 37.9355 0.961914 37.597 0.834961 37.2031C0.708008 36.8092 0.644531 36.3714 0.644531 35.8896V35.001C0.644531 34.5192 0.708008 34.083 0.834961 33.6924C0.961914 33.2985 1.14421 32.96 1.38184 32.6768C1.61947 32.3936 1.9043 32.1755 2.23633 32.0225C2.56836 31.8695 2.94271 31.793 3.35938 31.793C3.86393 31.793 4.30013 31.8857 4.66797 32.0713C5.03581 32.2536 5.32552 32.5173 5.53711 32.8623C5.75195 33.2074 5.88379 33.624 5.93262 34.1123H5.33203C5.28646 33.7282 5.18555 33.4027 5.0293 33.1357C4.87305 32.8688 4.65658 32.6654 4.37988 32.5254C4.10645 32.3822 3.76628 32.3105 3.35938 32.3105C3.02734 32.3105 2.73112 32.374 2.4707 32.501C2.21029 32.6279 1.98893 32.8102 1.80664 33.0479C1.62435 33.2822 1.48438 33.5638 1.38672 33.8926C1.29232 34.2214 1.24512 34.5876 1.24512 34.9912V35.8896C1.24512 36.2803 1.29069 36.64 1.38184 36.9688C1.47298 37.2975 1.60645 37.5824 1.78223 37.8232C1.96126 38.0641 2.17936 38.2513 2.43652 38.3848C2.69368 38.5182 2.98665 38.585 3.31543 38.585C3.73535 38.585 4.08529 38.5182 4.36523 38.3848C4.64844 38.248 4.86816 38.0462 5.02441 37.7793C5.18066 37.5124 5.2832 37.1803 5.33203 36.7832ZM7.83848 36.4414V36.2803C7.83848 35.8962 7.89382 35.5413 8.00449 35.2158C8.11517 34.8903 8.27305 34.6087 8.47813 34.3711C8.68646 34.1335 8.93548 33.9495 9.2252 33.8193C9.51491 33.6859 9.83717 33.6191 10.192 33.6191C10.5501 33.6191 10.874 33.6859 11.1637 33.8193C11.4534 33.9495 11.7024 34.1335 11.9107 34.3711C12.1191 34.6087 12.2786 34.8903 12.3893 35.2158C12.4999 35.5413 12.5553 35.8962 12.5553 36.2803V36.4414C12.5553 36.8255 12.4999 37.1803 12.3893 37.5059C12.2786 37.8281 12.1191 38.1081 11.9107 38.3457C11.7057 38.5833 11.4583 38.7689 11.1686 38.9023C10.8788 39.0326 10.5566 39.0977 10.2018 39.0977C9.84368 39.0977 9.51979 39.0326 9.23008 38.9023C8.94036 38.7689 8.69134 38.5833 8.48301 38.3457C8.27467 38.1081 8.11517 37.8281 8.00449 37.5059C7.89382 37.1803 7.83848 36.8255 7.83848 36.4414ZM8.41953 36.2803V36.4414C8.41953 36.7311 8.45859 37.0062 8.53672 37.2666C8.61484 37.5238 8.72878 37.7533 8.87852 37.9551C9.02826 38.1536 9.2138 38.3099 9.43516 38.4238C9.65651 38.5378 9.91204 38.5947 10.2018 38.5947C10.4882 38.5947 10.7405 38.5378 10.9586 38.4238C11.1799 38.3099 11.3655 38.1536 11.5152 37.9551C11.665 37.7533 11.7773 37.5238 11.8521 37.2666C11.9303 37.0062 11.9693 36.7311 11.9693 36.4414V36.2803C11.9693 35.9938 11.9303 35.722 11.8521 35.4648C11.7773 35.2077 11.6633 34.9782 11.5104 34.7764C11.3606 34.5745 11.1751 34.415 10.9537 34.2979C10.7324 34.1807 10.4785 34.1221 10.192 34.1221C9.90553 34.1221 9.65163 34.1807 9.43027 34.2979C9.21217 34.415 9.02663 34.5745 8.87363 34.7764C8.72389 34.9782 8.60996 35.2077 8.53184 35.4648C8.45697 35.722 8.41953 35.9938 8.41953 36.2803ZM15.2473 34.8447V39H14.6662V33.7168H15.2229L15.2473 34.8447ZM15.1154 36.0312L14.8566 35.8848C14.8762 35.5723 14.9396 35.2793 15.0471 35.0059C15.1545 34.7324 15.2993 34.4915 15.4816 34.2832C15.6672 34.0749 15.8837 33.9121 16.1311 33.7949C16.3817 33.6777 16.6584 33.6191 16.9611 33.6191C17.2248 33.6191 17.4608 33.6549 17.6691 33.7266C17.8775 33.7982 18.0549 33.9121 18.2014 34.0684C18.3479 34.2246 18.4585 34.4248 18.5334 34.6689C18.6115 34.9131 18.6506 35.2109 18.6506 35.5625V39H18.0646V35.5576C18.0646 35.193 18.0142 34.9082 17.9133 34.7031C17.8124 34.4948 17.6691 34.3467 17.4836 34.2588C17.298 34.1709 17.0783 34.127 16.8244 34.127C16.5445 34.127 16.2987 34.1888 16.0871 34.3125C15.8788 34.4329 15.703 34.5908 15.5598 34.7861C15.4198 34.9782 15.3124 35.1849 15.2375 35.4062C15.1626 35.6243 15.1219 35.8327 15.1154 36.0312ZM23.0613 33.7168V34.1953H20.4148V33.7168H23.0613ZM21.3865 32.3594H21.9676V37.7158C21.9676 37.96 22.0001 38.1439 22.0652 38.2676C22.1303 38.3913 22.215 38.4743 22.3191 38.5166C22.4233 38.5589 22.5356 38.5801 22.6561 38.5801C22.7439 38.5801 22.8286 38.5752 22.91 38.5654C22.9913 38.5524 23.0646 38.5394 23.1297 38.5264L23.1541 39.0195C23.0825 39.0423 22.9897 39.0602 22.8758 39.0732C22.7618 39.0895 22.6479 39.0977 22.534 39.0977C22.3094 39.0977 22.1108 39.057 21.9383 38.9756C21.7658 38.891 21.6307 38.7477 21.533 38.5459C21.4354 38.3408 21.3865 38.0625 21.3865 37.7109V32.3594ZM27.2279 39.0977C26.8829 39.0977 26.5655 39.0342 26.2758 38.9072C25.9893 38.7803 25.7387 38.6012 25.5238 38.3701C25.3122 38.139 25.1479 37.8656 25.0307 37.5498C24.9167 37.2308 24.8598 36.8825 24.8598 36.5049V36.2949C24.8598 35.888 24.92 35.5202 25.0404 35.1914C25.1609 34.8626 25.3269 34.5811 25.5385 34.3467C25.7501 34.1123 25.991 33.9333 26.2611 33.8096C26.5346 33.6826 26.821 33.6191 27.1205 33.6191C27.4558 33.6191 27.7536 33.6794 28.0141 33.7998C28.2745 33.917 28.4926 34.0846 28.6684 34.3027C28.8474 34.5176 28.9825 34.7731 29.0736 35.0693C29.1648 35.3623 29.2104 35.6862 29.2104 36.041V36.3975H25.2113V35.8994H28.6293V35.8311C28.6228 35.5348 28.5626 35.2581 28.4486 35.001C28.338 34.7406 28.1719 34.529 27.9506 34.3662C27.7292 34.2035 27.4525 34.1221 27.1205 34.1221C26.8731 34.1221 26.6452 34.1742 26.4369 34.2783C26.2318 34.3825 26.0544 34.5322 25.9047 34.7275C25.7582 34.9196 25.6443 35.1491 25.5629 35.416C25.4848 35.6797 25.4457 35.9727 25.4457 36.2949V36.5049C25.4457 36.7979 25.488 37.0713 25.5727 37.3252C25.6605 37.5758 25.7842 37.7972 25.9438 37.9893C26.1065 38.1813 26.2986 38.3311 26.5199 38.4385C26.7413 38.5459 26.9854 38.5996 27.2523 38.5996C27.5648 38.5996 27.8415 38.5426 28.0824 38.4287C28.3233 38.3115 28.5398 38.1276 28.7318 37.877L29.098 38.1602C28.9841 38.3294 28.8409 38.4857 28.6684 38.6289C28.4991 38.7721 28.2956 38.8861 28.058 38.9707C27.8204 39.0553 27.5437 39.0977 27.2279 39.0977ZM31.8438 34.8447V39H31.2627V33.7168H31.8193L31.8438 34.8447ZM31.7119 36.0312L31.4531 35.8848C31.4727 35.5723 31.5361 35.2793 31.6436 35.0059C31.751 34.7324 31.8958 34.4915 32.0781 34.2832C32.2637 34.0749 32.4801 33.9121 32.7275 33.7949C32.9782 33.6777 33.2549 33.6191 33.5576 33.6191C33.8213 33.6191 34.0573 33.6549 34.2656 33.7266C34.474 33.7982 34.6514 33.9121 34.7979 34.0684C34.9443 34.2246 35.055 34.4248 35.1299 34.6689C35.208 34.9131 35.2471 35.2109 35.2471 35.5625V39H34.6611V35.5576C34.6611 35.193 34.6107 34.9082 34.5098 34.7031C34.4089 34.4948 34.2656 34.3467 34.0801 34.2588C33.8945 34.1709 33.6748 34.127 33.4209 34.127C33.141 34.127 32.8952 34.1888 32.6836 34.3125C32.4753 34.4329 32.2995 34.5908 32.1562 34.7861C32.0163 34.9782 31.9089 35.1849 31.834 35.4062C31.7591 35.6243 31.7184 35.8327 31.7119 36.0312ZM39.6578 33.7168V34.1953H37.0113V33.7168H39.6578ZM37.983 32.3594H38.5641V37.7158C38.5641 37.96 38.5966 38.1439 38.6617 38.2676C38.7268 38.3913 38.8115 38.4743 38.9156 38.5166C39.0198 38.5589 39.1321 38.5801 39.2525 38.5801C39.3404 38.5801 39.4251 38.5752 39.5064 38.5654C39.5878 38.5524 39.6611 38.5394 39.7262 38.5264L39.7506 39.0195C39.679 39.0423 39.5862 39.0602 39.4723 39.0732C39.3583 39.0895 39.2444 39.0977 39.1305 39.0977C38.9059 39.0977 38.7073 39.057 38.5348 38.9756C38.3622 38.891 38.2271 38.7477 38.1295 38.5459C38.0318 38.3408 37.983 38.0625 37.983 37.7109V32.3594ZM44.9475 37.6523C44.9475 37.5091 44.9117 37.3675 44.84 37.2275C44.7684 37.0876 44.6301 36.959 44.425 36.8418C44.2232 36.7246 43.9253 36.6253 43.5314 36.5439C43.2385 36.4788 42.9764 36.4056 42.7453 36.3242C42.5174 36.2428 42.3254 36.1452 42.1691 36.0312C42.0129 35.9173 41.8941 35.7806 41.8127 35.6211C41.7313 35.4616 41.6906 35.2728 41.6906 35.0547C41.6906 34.8594 41.7329 34.6755 41.8176 34.5029C41.9055 34.3271 42.0292 34.1742 42.1887 34.0439C42.3514 33.9105 42.5467 33.8063 42.7746 33.7314C43.0057 33.6566 43.2645 33.6191 43.551 33.6191C43.9579 33.6191 44.3062 33.6891 44.5959 33.8291C44.8889 33.9658 45.1118 34.153 45.2648 34.3906C45.4211 34.6283 45.4992 34.8968 45.4992 35.1963H44.9182C44.9182 35.014 44.8645 34.8415 44.757 34.6787C44.6529 34.516 44.4982 34.3825 44.2932 34.2783C44.0913 34.1742 43.8439 34.1221 43.551 34.1221C43.2482 34.1221 43.0025 34.1676 42.8137 34.2588C42.6249 34.3499 42.4865 34.4655 42.3986 34.6055C42.314 34.7454 42.2717 34.8903 42.2717 35.04C42.2717 35.1572 42.2896 35.2646 42.3254 35.3623C42.3645 35.4567 42.4328 35.5446 42.5305 35.626C42.6314 35.7074 42.7746 35.7839 42.9602 35.8555C43.1457 35.9271 43.3866 35.9971 43.6828 36.0654C44.1092 36.1598 44.4576 36.2754 44.7277 36.4121C45.0012 36.5456 45.203 36.7116 45.3332 36.9102C45.4634 37.1055 45.5285 37.3431 45.5285 37.623C45.5285 37.8411 45.4829 38.0413 45.3918 38.2236C45.3007 38.4027 45.1688 38.5573 44.9963 38.6875C44.827 38.8177 44.6219 38.9186 44.3811 38.9902C44.1434 39.0618 43.8765 39.0977 43.5803 39.0977C43.1343 39.0977 42.7567 39.0244 42.4475 38.8779C42.1415 38.7282 41.9087 38.5329 41.7492 38.292C41.593 38.0479 41.5148 37.7891 41.5148 37.5156H42.0959C42.1154 37.7891 42.2017 38.0055 42.3547 38.165C42.5077 38.3213 42.6949 38.432 42.9162 38.4971C43.1408 38.5622 43.3622 38.5947 43.5803 38.5947C43.8798 38.5947 44.1304 38.5508 44.3322 38.4629C44.534 38.375 44.687 38.2594 44.7912 38.1162C44.8954 37.973 44.9475 37.8184 44.9475 37.6523ZM51.4154 31.8906H52.0209L54.6479 38.1504L57.2797 31.8906H57.8803L54.8773 39H54.4184L51.4154 31.8906ZM51.2299 31.8906H51.7621L51.8256 35.8945V39H51.2299V31.8906ZM57.5434 31.8906H58.0756V39H57.475V35.8945L57.5434 31.8906ZM63.8584 38.0527V35.3281C63.8584 35.0775 63.8063 34.861 63.7021 34.6787C63.598 34.4964 63.445 34.3564 63.2432 34.2588C63.0413 34.1611 62.7923 34.1123 62.4961 34.1123C62.2227 34.1123 61.9785 34.1611 61.7637 34.2588C61.5521 34.3532 61.3844 34.4818 61.2607 34.6445C61.1403 34.804 61.0801 34.9814 61.0801 35.1768L60.4941 35.1719C60.4941 34.9733 60.543 34.7812 60.6406 34.5957C60.7383 34.4102 60.8766 34.2441 61.0557 34.0977C61.2347 33.9512 61.4479 33.8356 61.6953 33.751C61.946 33.6631 62.221 33.6191 62.5205 33.6191C62.8981 33.6191 63.2301 33.6826 63.5166 33.8096C63.8063 33.9365 64.0326 34.127 64.1953 34.3809C64.3581 34.6348 64.4395 34.9538 64.4395 35.3379V37.8916C64.4395 38.0739 64.4525 38.2627 64.4785 38.458C64.5078 38.6533 64.5485 38.8145 64.6006 38.9414V39H63.9805C63.9414 38.8828 63.9105 38.7363 63.8877 38.5605C63.8682 38.3815 63.8584 38.2122 63.8584 38.0527ZM63.9951 35.9238L64.0049 36.373H62.8574C62.5579 36.373 62.2894 36.4007 62.0518 36.4561C61.8174 36.5081 61.6188 36.5863 61.4561 36.6904C61.2933 36.7913 61.168 36.9134 61.0801 37.0566C60.9954 37.1999 60.9531 37.3626 60.9531 37.5449C60.9531 37.7337 61.0003 37.9062 61.0947 38.0625C61.1924 38.2188 61.3291 38.3441 61.5049 38.4385C61.6839 38.5296 61.8955 38.5752 62.1396 38.5752C62.4652 38.5752 62.7516 38.515 62.999 38.3945C63.2497 38.2741 63.4564 38.1162 63.6191 37.9209C63.7819 37.7256 63.891 37.5124 63.9463 37.2812L64.2002 37.6182C64.1579 37.7809 64.0798 37.9486 63.9658 38.1211C63.8551 38.2904 63.7103 38.4499 63.5312 38.5996C63.3522 38.7461 63.1406 38.8665 62.8965 38.9609C62.6556 39.0521 62.3822 39.0977 62.0762 39.0977C61.7311 39.0977 61.43 39.0326 61.1729 38.9023C60.9189 38.7721 60.7204 38.5947 60.5771 38.3701C60.4372 38.1423 60.3672 37.8851 60.3672 37.5986C60.3672 37.3382 60.4225 37.1055 60.5332 36.9004C60.6439 36.6921 60.8034 36.5163 61.0117 36.373C61.2233 36.2266 61.4772 36.1159 61.7734 36.041C62.0729 35.9629 62.4082 35.9238 62.7793 35.9238H63.9951ZM67.4879 34.8447V39H66.9068V33.7168H67.4635L67.4879 34.8447ZM67.3561 36.0312L67.0973 35.8848C67.1168 35.5723 67.1803 35.2793 67.2877 35.0059C67.3951 34.7324 67.54 34.4915 67.7223 34.2832C67.9078 34.0749 68.1243 33.9121 68.3717 33.7949C68.6223 33.6777 68.899 33.6191 69.2018 33.6191C69.4654 33.6191 69.7014 33.6549 69.9098 33.7266C70.1181 33.7982 70.2955 33.9121 70.442 34.0684C70.5885 34.2246 70.6992 34.4248 70.774 34.6689C70.8521 34.9131 70.8912 35.2109 70.8912 35.5625V39H70.3053V35.5576C70.3053 35.193 70.2548 34.9082 70.1539 34.7031C70.053 34.4948 69.9098 34.3467 69.7242 34.2588C69.5387 34.1709 69.3189 34.127 69.065 34.127C68.7851 34.127 68.5393 34.1888 68.3277 34.3125C68.1194 34.4329 67.9436 34.5908 67.8004 34.7861C67.6604 34.9782 67.553 35.1849 67.4781 35.4062C67.4033 35.6243 67.3626 35.8327 67.3561 36.0312ZM76.5178 38.0527V35.3281C76.5178 35.0775 76.4657 34.861 76.3615 34.6787C76.2574 34.4964 76.1044 34.3564 75.9025 34.2588C75.7007 34.1611 75.4517 34.1123 75.1555 34.1123C74.882 34.1123 74.6379 34.1611 74.423 34.2588C74.2115 34.3532 74.0438 34.4818 73.9201 34.6445C73.7997 34.804 73.7395 34.9814 73.7395 35.1768L73.1535 35.1719C73.1535 34.9733 73.2023 34.7812 73.3 34.5957C73.3977 34.4102 73.536 34.2441 73.715 34.0977C73.8941 33.9512 74.1073 33.8356 74.3547 33.751C74.6053 33.6631 74.8804 33.6191 75.1799 33.6191C75.5575 33.6191 75.8895 33.6826 76.176 33.8096C76.4657 33.9365 76.6919 34.127 76.8547 34.3809C77.0175 34.6348 77.0988 34.9538 77.0988 35.3379V37.8916C77.0988 38.0739 77.1119 38.2627 77.1379 38.458C77.1672 38.6533 77.2079 38.8145 77.26 38.9414V39H76.6398C76.6008 38.8828 76.5699 38.7363 76.5471 38.5605C76.5275 38.3815 76.5178 38.2122 76.5178 38.0527ZM76.6545 35.9238L76.6643 36.373H75.5168C75.2173 36.373 74.9488 36.4007 74.7111 36.4561C74.4768 36.5081 74.2782 36.5863 74.1154 36.6904C73.9527 36.7913 73.8273 36.9134 73.7395 37.0566C73.6548 37.1999 73.6125 37.3626 73.6125 37.5449C73.6125 37.7337 73.6597 37.9062 73.7541 38.0625C73.8518 38.2188 73.9885 38.3441 74.1643 38.4385C74.3433 38.5296 74.5549 38.5752 74.799 38.5752C75.1245 38.5752 75.411 38.515 75.6584 38.3945C75.9091 38.2741 76.1158 38.1162 76.2785 37.9209C76.4413 37.7256 76.5503 37.5124 76.6057 37.2812L76.8596 37.6182C76.8173 37.7809 76.7391 37.9486 76.6252 38.1211C76.5145 38.2904 76.3697 38.4499 76.1906 38.5996C76.0116 38.7461 75.8 38.8665 75.5559 38.9609C75.315 39.0521 75.0415 39.0977 74.7355 39.0977C74.3905 39.0977 74.0894 39.0326 73.8322 38.9023C73.5783 38.7721 73.3798 38.5947 73.2365 38.3701C73.0966 38.1423 73.0266 37.8851 73.0266 37.5986C73.0266 37.3382 73.0819 37.1055 73.1926 36.9004C73.3033 36.6921 73.4628 36.5163 73.6711 36.373C73.8827 36.2266 74.1366 36.1159 74.4328 36.041C74.7323 35.9629 75.0676 35.9238 75.4387 35.9238H76.6545ZM83.0428 33.7168H83.5848V38.9072C83.5848 39.3662 83.4969 39.7601 83.3211 40.0889C83.1486 40.4176 82.9028 40.6699 82.5838 40.8457C82.268 41.0215 81.8953 41.1094 81.4656 41.1094C81.2475 41.1094 81.0229 41.0752 80.7918 41.0068C80.5639 40.9417 80.3475 40.8408 80.1424 40.7041C79.9406 40.5706 79.768 40.4046 79.6248 40.2061L79.952 39.8496C80.1668 40.11 80.3963 40.3005 80.6404 40.4209C80.8846 40.5446 81.1482 40.6064 81.4314 40.6064C81.7667 40.6064 82.0499 40.5397 82.2811 40.4062C82.5154 40.2728 82.6928 40.0807 82.8133 39.8301C82.937 39.5794 82.9988 39.2783 82.9988 38.9268V34.8789L83.0428 33.7168ZM79.3318 36.4121V36.3096C79.3318 35.8994 79.3774 35.5299 79.4686 35.2012C79.563 34.8691 79.698 34.5859 79.8738 34.3516C80.0496 34.1139 80.2628 33.9333 80.5135 33.8096C80.7674 33.6826 81.0538 33.6191 81.3728 33.6191C81.6788 33.6191 81.9506 33.6696 82.1883 33.7705C82.4259 33.8714 82.631 34.0163 82.8035 34.2051C82.976 34.3939 83.1144 34.6185 83.2186 34.8789C83.326 35.1393 83.4041 35.429 83.4529 35.748V37.0518C83.4139 37.3512 83.3422 37.6263 83.2381 37.877C83.1339 38.1243 82.9956 38.3408 82.823 38.5264C82.6505 38.7087 82.4422 38.8503 82.198 38.9512C81.9572 39.0488 81.6788 39.0977 81.3631 39.0977C81.0473 39.0977 80.7641 39.0326 80.5135 38.9023C80.2628 38.7721 80.0496 38.5882 79.8738 38.3506C79.698 38.1097 79.563 37.8249 79.4686 37.4961C79.3774 37.1673 79.3318 36.806 79.3318 36.4121ZM79.9178 36.3096V36.4121C79.9178 36.7214 79.9487 37.0078 80.0105 37.2715C80.0724 37.5352 80.1668 37.7646 80.2937 37.96C80.4207 38.1553 80.5818 38.3083 80.7771 38.4189C80.9725 38.5296 81.202 38.585 81.4656 38.585C81.8009 38.585 82.0825 38.5215 82.3103 38.3945C82.5382 38.2643 82.7189 38.0934 82.8523 37.8818C82.9858 37.667 83.0835 37.4326 83.1453 37.1787V35.6602C83.1095 35.4876 83.0542 35.3118 82.9793 35.1328C82.9077 34.9538 82.8068 34.7894 82.6766 34.6396C82.5496 34.4867 82.3868 34.3646 82.1883 34.2734C81.993 34.179 81.7553 34.1318 81.4754 34.1318C81.2085 34.1318 80.9757 34.1872 80.7771 34.2979C80.5818 34.4085 80.4207 34.5632 80.2937 34.7617C80.1668 34.957 80.0724 35.1865 80.0105 35.4502C79.9487 35.7139 79.9178 36.0003 79.9178 36.3096ZM88.0541 39.0977C87.709 39.0977 87.3917 39.0342 87.102 38.9072C86.8155 38.7803 86.5648 38.6012 86.35 38.3701C86.1384 38.139 85.974 37.8656 85.8568 37.5498C85.7429 37.2308 85.6859 36.8825 85.6859 36.5049V36.2949C85.6859 35.888 85.7462 35.5202 85.8666 35.1914C85.987 34.8626 86.1531 34.5811 86.3646 34.3467C86.5762 34.1123 86.8171 33.9333 87.0873 33.8096C87.3607 33.6826 87.6472 33.6191 87.9467 33.6191C88.282 33.6191 88.5798 33.6794 88.8402 33.7998C89.1006 33.917 89.3187 34.0846 89.4945 34.3027C89.6736 34.5176 89.8087 34.7731 89.8998 35.0693C89.9909 35.3623 90.0365 35.6862 90.0365 36.041V36.3975H86.0375V35.8994H89.4555V35.8311C89.449 35.5348 89.3887 35.2581 89.2748 35.001C89.1641 34.7406 88.9981 34.529 88.7768 34.3662C88.5554 34.2035 88.2787 34.1221 87.9467 34.1221C87.6993 34.1221 87.4714 34.1742 87.2631 34.2783C87.058 34.3825 86.8806 34.5322 86.7309 34.7275C86.5844 34.9196 86.4704 35.1491 86.3891 35.416C86.3109 35.6797 86.2719 35.9727 86.2719 36.2949V36.5049C86.2719 36.7979 86.3142 37.0713 86.3988 37.3252C86.4867 37.5758 86.6104 37.7972 86.7699 37.9893C86.9327 38.1813 87.1247 38.3311 87.3461 38.4385C87.5674 38.5459 87.8116 38.5996 88.0785 38.5996C88.391 38.5996 88.6677 38.5426 88.9086 38.4287C89.1495 38.3115 89.3659 38.1276 89.558 37.877L89.9242 38.1602C89.8103 38.3294 89.6671 38.4857 89.4945 38.6289C89.3253 38.7721 89.1218 38.8861 88.8842 38.9707C88.6465 39.0553 88.3699 39.0977 88.0541 39.0977ZM92.6406 34.8105V39H92.0547V33.7168H92.6162L92.6406 34.8105ZM92.5332 36.0312L92.25 35.8848C92.2695 35.5723 92.3281 35.2793 92.4258 35.0059C92.5267 34.7324 92.6667 34.4915 92.8457 34.2832C93.0247 34.0749 93.2396 33.9121 93.4902 33.7949C93.7409 33.6777 94.0257 33.6191 94.3447 33.6191C94.6019 33.6191 94.8346 33.6549 95.043 33.7266C95.2546 33.7949 95.4336 33.904 95.5801 34.0537C95.7298 34.2002 95.8454 34.3923 95.9268 34.6299C96.0081 34.8675 96.0488 35.1523 96.0488 35.4844V39H95.4678V35.5039C95.4678 35.1523 95.4124 34.8773 95.3018 34.6787C95.1943 34.4801 95.043 34.3385 94.8477 34.2539C94.6556 34.1693 94.4326 34.127 94.1787 34.127C93.8792 34.127 93.6253 34.1888 93.417 34.3125C93.2119 34.4329 93.0443 34.5908 92.9141 34.7861C92.7871 34.9782 92.6927 35.1849 92.6309 35.4062C92.569 35.6243 92.5365 35.8327 92.5332 36.0312ZM96.0439 35.5723L95.6533 35.582C95.6696 35.3249 95.7282 35.0791 95.8291 34.8447C95.9333 34.6104 96.0749 34.402 96.2539 34.2197C96.4329 34.0342 96.6462 33.8877 96.8936 33.7803C97.1442 33.6729 97.4258 33.6191 97.7383 33.6191C98.0117 33.6191 98.2559 33.6566 98.4707 33.7314C98.6855 33.8031 98.8662 33.9186 99.0127 34.0781C99.1624 34.2344 99.2764 34.4346 99.3545 34.6787C99.4326 34.9229 99.4717 35.2158 99.4717 35.5576V39H98.8857V35.5527C98.8857 35.1784 98.8304 34.8887 98.7197 34.6836C98.6123 34.4753 98.4626 34.3304 98.2705 34.249C98.0785 34.1676 97.8538 34.127 97.5967 34.127C97.3428 34.1302 97.1198 34.1774 96.9277 34.2686C96.7357 34.3564 96.5745 34.4736 96.4443 34.6201C96.3174 34.7633 96.2197 34.918 96.1514 35.084C96.0863 35.25 96.0505 35.4128 96.0439 35.5723ZM103.897 39.0977C103.552 39.0977 103.235 39.0342 102.945 38.9072C102.658 38.7803 102.408 38.6012 102.193 38.3701C101.981 38.139 101.817 37.8656 101.7 37.5498C101.586 37.2308 101.529 36.8825 101.529 36.5049V36.2949C101.529 35.888 101.589 35.5202 101.71 35.1914C101.83 34.8626 101.996 34.5811 102.208 34.3467C102.419 34.1123 102.66 33.9333 102.93 33.8096C103.204 33.6826 103.49 33.6191 103.79 33.6191C104.125 33.6191 104.423 33.6794 104.683 33.7998C104.944 33.917 105.162 34.0846 105.338 34.3027C105.517 34.5176 105.652 34.7731 105.743 35.0693C105.834 35.3623 105.879 35.6862 105.879 36.041V36.3975H101.88V35.8994H105.298V35.8311C105.292 35.5348 105.232 35.2581 105.118 35.001C105.007 34.7406 104.841 34.529 104.62 34.3662C104.398 34.2035 104.122 34.1221 103.79 34.1221C103.542 34.1221 103.314 34.1742 103.106 34.2783C102.901 34.3825 102.724 34.5322 102.574 34.7275C102.427 34.9196 102.313 35.1491 102.232 35.416C102.154 35.6797 102.115 35.9727 102.115 36.2949V36.5049C102.115 36.7979 102.157 37.0713 102.242 37.3252C102.33 37.5758 102.453 37.7972 102.613 37.9893C102.776 38.1813 102.968 38.3311 103.189 38.4385C103.41 38.5459 103.655 38.5996 103.921 38.5996C104.234 38.5996 104.511 38.5426 104.752 38.4287C104.992 38.3115 105.209 38.1276 105.401 37.877L105.767 38.1602C105.653 38.3294 105.51 38.4857 105.338 38.6289C105.168 38.7721 104.965 38.8861 104.727 38.9707C104.49 39.0553 104.213 39.0977 103.897 39.0977ZM108.513 34.8447V39H107.932V33.7168H108.488L108.513 34.8447ZM108.381 36.0312L108.122 35.8848C108.142 35.5723 108.205 35.2793 108.313 35.0059C108.42 34.7324 108.565 34.4915 108.747 34.2832C108.933 34.0749 109.149 33.9121 109.397 33.7949C109.647 33.6777 109.924 33.6191 110.227 33.6191C110.49 33.6191 110.726 33.6549 110.935 33.7266C111.143 33.7982 111.321 33.9121 111.467 34.0684C111.613 34.2246 111.724 34.4248 111.799 34.6689C111.877 34.9131 111.916 35.2109 111.916 35.5625V39H111.33V35.5576C111.33 35.193 111.28 34.9082 111.179 34.7031C111.078 34.4948 110.935 34.3467 110.749 34.2588C110.564 34.1709 110.344 34.127 110.09 34.127C109.81 34.127 109.564 34.1888 109.353 34.3125C109.144 34.4329 108.969 34.5908 108.825 34.7861C108.685 34.9782 108.578 35.1849 108.503 35.4062C108.428 35.6243 108.388 35.8327 108.381 36.0312ZM116.327 33.7168V34.1953H113.68V33.7168H116.327ZM114.652 32.3594H115.233V37.7158C115.233 37.96 115.266 38.1439 115.331 38.2676C115.396 38.3913 115.481 38.4743 115.585 38.5166C115.689 38.5589 115.801 38.5801 115.922 38.5801C116.01 38.5801 116.094 38.5752 116.176 38.5654C116.257 38.5524 116.33 38.5394 116.395 38.5264L116.42 39.0195C116.348 39.0423 116.255 39.0602 116.141 39.0732C116.027 39.0895 115.914 39.0977 115.8 39.0977C115.575 39.0977 115.376 39.057 115.204 38.9756C115.031 38.891 114.896 38.7477 114.799 38.5459C114.701 38.3408 114.652 38.0625 114.652 37.7109V32.3594ZM125.954 37.252C125.954 37.0566 125.922 36.8825 125.856 36.7295C125.791 36.5765 125.684 36.4398 125.534 36.3193C125.388 36.1956 125.189 36.0817 124.938 35.9775C124.691 35.8701 124.382 35.7643 124.011 35.6602C123.656 35.5592 123.335 35.4486 123.049 35.3281C122.762 35.2077 122.517 35.0693 122.312 34.9131C122.11 34.7568 121.955 34.5745 121.848 34.3662C121.74 34.1546 121.687 33.9089 121.687 33.6289C121.687 33.3555 121.745 33.1064 121.862 32.8818C121.979 32.6572 122.144 32.4635 122.355 32.3008C122.57 32.138 122.823 32.0127 123.112 31.9248C123.405 31.8369 123.726 31.793 124.074 31.793C124.572 31.793 125.002 31.8874 125.363 32.0762C125.728 32.265 126.009 32.5205 126.208 32.8428C126.41 33.1618 126.511 33.5199 126.511 33.917H125.91C125.91 33.6077 125.837 33.3327 125.69 33.0918C125.547 32.8477 125.339 32.6572 125.065 32.5205C124.795 32.3805 124.465 32.3105 124.074 32.3105C123.684 32.3105 123.355 32.3708 123.088 32.4912C122.824 32.6084 122.624 32.7663 122.487 32.9648C122.354 33.1602 122.287 33.3783 122.287 33.6191C122.287 33.7884 122.32 33.9447 122.385 34.0879C122.45 34.2279 122.556 34.3597 122.702 34.4834C122.852 34.6038 123.049 34.7178 123.293 34.8252C123.537 34.9294 123.838 35.0286 124.196 35.123C124.574 35.2272 124.909 35.3428 125.202 35.4697C125.495 35.5967 125.743 35.7432 125.944 35.9092C126.146 36.0719 126.299 36.2624 126.403 36.4805C126.507 36.6986 126.56 36.9525 126.56 37.2422C126.56 37.5319 126.498 37.7923 126.374 38.0234C126.254 38.2513 126.083 38.445 125.861 38.6045C125.643 38.764 125.384 38.8861 125.085 38.9707C124.789 39.0553 124.465 39.0977 124.113 39.0977C123.798 39.0977 123.483 39.057 123.171 38.9756C122.858 38.8942 122.572 38.7689 122.312 38.5996C122.054 38.4271 121.848 38.2057 121.691 37.9355C121.538 37.6654 121.462 37.3431 121.462 36.9688H122.058C122.058 37.2682 122.118 37.5205 122.238 37.7256C122.359 37.9307 122.518 38.0967 122.717 38.2236C122.919 38.3506 123.14 38.4434 123.381 38.502C123.625 38.5573 123.869 38.585 124.113 38.585C124.488 38.585 124.812 38.5296 125.085 38.4189C125.362 38.3083 125.575 38.1536 125.725 37.9551C125.878 37.7533 125.954 37.5189 125.954 37.252ZM130.189 38.4727L131.835 33.7168H132.464L130.228 39.8496C130.183 39.9701 130.124 40.1035 130.052 40.25C129.984 40.3965 129.893 40.5365 129.779 40.6699C129.668 40.8066 129.528 40.9173 129.359 41.002C129.193 41.0898 128.99 41.1338 128.749 41.1338C128.687 41.1338 128.607 41.1257 128.509 41.1094C128.415 41.0964 128.347 41.0833 128.304 41.0703L128.299 40.5771C128.335 40.5869 128.387 40.5951 128.456 40.6016C128.524 40.6081 128.571 40.6113 128.597 40.6113C128.809 40.6113 128.986 40.5755 129.129 40.5039C129.276 40.4323 129.398 40.3249 129.496 40.1816C129.593 40.0417 129.68 39.8659 129.754 39.6543L130.189 38.4727ZM128.651 33.7168L130.336 38.2529L130.492 38.8633L130.067 39.1025L128.016 33.7168H128.651ZM137.442 37.6523C137.442 37.5091 137.406 37.3675 137.334 37.2275C137.263 37.0876 137.124 36.959 136.919 36.8418C136.717 36.7246 136.419 36.6253 136.026 36.5439C135.733 36.4788 135.471 36.4056 135.239 36.3242C135.012 36.2428 134.82 36.1452 134.663 36.0312C134.507 35.9173 134.388 35.7806 134.307 35.6211C134.225 35.4616 134.185 35.2728 134.185 35.0547C134.185 34.8594 134.227 34.6755 134.312 34.5029C134.4 34.3271 134.523 34.1742 134.683 34.0439C134.846 33.9105 135.041 33.8063 135.269 33.7314C135.5 33.6566 135.759 33.6191 136.045 33.6191C136.452 33.6191 136.8 33.6891 137.09 33.8291C137.383 33.9658 137.606 34.153 137.759 34.3906C137.915 34.6283 137.993 34.8968 137.993 35.1963H137.412C137.412 35.014 137.359 34.8415 137.251 34.6787C137.147 34.516 136.992 34.3825 136.787 34.2783C136.585 34.1742 136.338 34.1221 136.045 34.1221C135.742 34.1221 135.497 34.1676 135.308 34.2588C135.119 34.3499 134.981 34.4655 134.893 34.6055C134.808 34.7454 134.766 34.8903 134.766 35.04C134.766 35.1572 134.784 35.2646 134.82 35.3623C134.859 35.4567 134.927 35.5446 135.025 35.626C135.126 35.7074 135.269 35.7839 135.454 35.8555C135.64 35.9271 135.881 35.9971 136.177 36.0654C136.603 36.1598 136.952 36.2754 137.222 36.4121C137.495 36.5456 137.697 36.7116 137.827 36.9102C137.958 37.1055 138.023 37.3431 138.023 37.623C138.023 37.8411 137.977 38.0413 137.886 38.2236C137.795 38.4027 137.663 38.5573 137.49 38.6875C137.321 38.8177 137.116 38.9186 136.875 38.9902C136.638 39.0618 136.371 39.0977 136.074 39.0977C135.628 39.0977 135.251 39.0244 134.942 38.8779C134.636 38.7282 134.403 38.5329 134.243 38.292C134.087 38.0479 134.009 37.7891 134.009 37.5156H134.59C134.61 37.7891 134.696 38.0055 134.849 38.165C135.002 38.3213 135.189 38.432 135.41 38.4971C135.635 38.5622 135.856 38.5947 136.074 38.5947C136.374 38.5947 136.625 38.5508 136.826 38.4629C137.028 38.375 137.181 38.2594 137.285 38.1162C137.39 37.973 137.442 37.8184 137.442 37.6523ZM142.243 33.7168V34.1953H139.596V33.7168H142.243ZM140.568 32.3594H141.149V37.7158C141.149 37.96 141.182 38.1439 141.247 38.2676C141.312 38.3913 141.397 38.4743 141.501 38.5166C141.605 38.5589 141.717 38.5801 141.838 38.5801C141.926 38.5801 142.01 38.5752 142.092 38.5654C142.173 38.5524 142.246 38.5394 142.311 38.5264L142.336 39.0195C142.264 39.0423 142.171 39.0602 142.057 39.0732C141.943 39.0895 141.83 39.0977 141.716 39.0977C141.491 39.0977 141.292 39.057 141.12 38.9756C140.947 38.891 140.812 38.7477 140.715 38.5459C140.617 38.3408 140.568 38.0625 140.568 37.7109V32.3594ZM146.41 39.0977C146.065 39.0977 145.747 39.0342 145.457 38.9072C145.171 38.7803 144.92 38.6012 144.705 38.3701C144.494 38.139 144.329 37.8656 144.212 37.5498C144.098 37.2308 144.041 36.8825 144.041 36.5049V36.2949C144.041 35.888 144.102 35.5202 144.222 35.1914C144.343 34.8626 144.509 34.5811 144.72 34.3467C144.932 34.1123 145.173 33.9333 145.443 33.8096C145.716 33.6826 146.003 33.6191 146.302 33.6191C146.637 33.6191 146.935 33.6794 147.196 33.7998C147.456 33.917 147.674 34.0846 147.85 34.3027C148.029 34.5176 148.164 34.7731 148.255 35.0693C148.346 35.3623 148.392 35.6862 148.392 36.041V36.3975H144.393V35.8994H147.811V35.8311C147.804 35.5348 147.744 35.2581 147.63 35.001C147.52 34.7406 147.354 34.529 147.132 34.3662C146.911 34.2035 146.634 34.1221 146.302 34.1221C146.055 34.1221 145.827 34.1742 145.619 34.2783C145.413 34.3825 145.236 34.5322 145.086 34.7275C144.94 34.9196 144.826 35.1491 144.745 35.416C144.666 35.6797 144.627 35.9727 144.627 36.2949V36.5049C144.627 36.7979 144.67 37.0713 144.754 37.3252C144.842 37.5758 144.966 37.7972 145.125 37.9893C145.288 38.1813 145.48 38.3311 145.702 38.4385C145.923 38.5459 146.167 38.5996 146.434 38.5996C146.746 38.5996 147.023 38.5426 147.264 38.4287C147.505 38.3115 147.721 38.1276 147.913 37.877L148.28 38.1602C148.166 38.3294 148.023 38.4857 147.85 38.6289C147.681 38.7721 147.477 38.8861 147.24 38.9707C147.002 39.0553 146.725 39.0977 146.41 39.0977ZM150.996 34.8105V39H150.41V33.7168H150.972L150.996 34.8105ZM150.889 36.0312L150.605 35.8848C150.625 35.5723 150.684 35.2793 150.781 35.0059C150.882 34.7324 151.022 34.4915 151.201 34.2832C151.38 34.0749 151.595 33.9121 151.846 33.7949C152.096 33.6777 152.381 33.6191 152.7 33.6191C152.957 33.6191 153.19 33.6549 153.398 33.7266C153.61 33.7949 153.789 33.904 153.936 34.0537C154.085 34.2002 154.201 34.3923 154.282 34.6299C154.364 34.8675 154.404 35.1523 154.404 35.4844V39H153.823V35.5039C153.823 35.1523 153.768 34.8773 153.657 34.6787C153.55 34.4801 153.398 34.3385 153.203 34.2539C153.011 34.1693 152.788 34.127 152.534 34.127C152.235 34.127 151.981 34.1888 151.772 34.3125C151.567 34.4329 151.4 34.5908 151.27 34.7861C151.143 34.9782 151.048 35.1849 150.986 35.4062C150.924 35.6243 150.892 35.8327 150.889 36.0312ZM154.399 35.5723L154.009 35.582C154.025 35.3249 154.084 35.0791 154.185 34.8447C154.289 34.6104 154.43 34.402 154.609 34.2197C154.788 34.0342 155.002 33.8877 155.249 33.7803C155.5 33.6729 155.781 33.6191 156.094 33.6191C156.367 33.6191 156.611 33.6566 156.826 33.7314C157.041 33.8031 157.222 33.9186 157.368 34.0781C157.518 34.2344 157.632 34.4346 157.71 34.6787C157.788 34.9229 157.827 35.2158 157.827 35.5576V39H157.241V35.5527C157.241 35.1784 157.186 34.8887 157.075 34.6836C156.968 34.4753 156.818 34.3304 156.626 34.249C156.434 34.1676 156.209 34.127 155.952 34.127C155.698 34.1302 155.475 34.1774 155.283 34.2686C155.091 34.3564 154.93 34.4736 154.8 34.6201C154.673 34.7633 154.575 34.918 154.507 35.084C154.442 35.25 154.406 35.4128 154.399 35.5723Z" fill="black"/>
</svg>
