<svg width="14" height="14" viewBox="0 0 14 14" fill="none" xmlns="http://www.w3.org/2000/svg">
<path d="M11.0837 2.33366H9.91699V1.75033C9.91699 1.59562 9.85554 1.44724 9.74614 1.33785C9.63674 1.22845 9.48837 1.16699 9.33366 1.16699C9.17895 1.16699 9.03058 1.22845 8.92118 1.33785C8.81178 1.44724 8.75033 1.59562 8.75033 1.75033V2.33366H5.25033V1.75033C5.25033 1.59562 5.18887 1.44724 5.07947 1.33785C4.97008 1.22845 4.8217 1.16699 4.66699 1.16699C4.51228 1.16699 4.36391 1.22845 4.25451 1.33785C4.14512 1.44724 4.08366 1.59562 4.08366 1.75033V2.33366H2.91699C2.45286 2.33366 2.00774 2.51803 1.67956 2.84622C1.35137 3.17441 1.16699 3.61953 1.16699 4.08366V11.0837C1.16699 11.5478 1.35137 11.9929 1.67956 12.3211C2.00774 12.6493 2.45286 12.8337 2.91699 12.8337H11.0837C11.5478 12.8337 11.9929 12.6493 12.3211 12.3211C12.6493 11.9929 12.8337 11.5478 12.8337 11.0837V4.08366C12.8337 3.61953 12.6493 3.17441 12.3211 2.84622C11.9929 2.51803 11.5478 2.33366 11.0837 2.33366ZM11.667 11.0837C11.667 11.2384 11.6055 11.3867 11.4961 11.4961C11.3867 11.6055 11.2384 11.667 11.0837 11.667H2.91699C2.76228 11.667 2.61391 11.6055 2.50451 11.4961C2.39512 11.3867 2.33366 11.2384 2.33366 11.0837V7.00033H11.667V11.0837ZM11.667 5.83366H2.33366V4.08366C2.33366 3.92895 2.39512 3.78058 2.50451 3.67118C2.61391 3.56178 2.76228 3.50033 2.91699 3.50033H4.08366V4.08366C4.08366 4.23837 4.14512 4.38674 4.25451 4.49614C4.36391 4.60553 4.51228 4.66699 4.66699 4.66699C4.8217 4.66699 4.97008 4.60553 5.07947 4.49614C5.18887 4.38674 5.25033 4.23837 5.25033 4.08366V3.50033H8.75033V4.08366C8.75033 4.23837 8.81178 4.38674 8.92118 4.49614C9.03058 4.60553 9.17895 4.66699 9.33366 4.66699C9.48837 4.66699 9.63674 4.60553 9.74614 4.49614C9.85554 4.38674 9.91699 4.23837 9.91699 4.08366V3.50033H11.0837C11.2384 3.50033 11.3867 3.56178 11.4961 3.67118C11.6055 3.78058 11.667 3.92895 11.667 4.08366V5.83366Z" fill="#8C8C8C"/>
</svg>
