<svg width="14" height="10" viewBox="0 0 14 10" fill="none" xmlns="http://www.w3.org/2000/svg">
<path d="M13.7368 0.5H0V9.5H13.7368V0.5Z" fill="#C30E2E"/>
<path d="M3.45127 7.48092C2.69823 7.48092 1.76204 6.90307 1.76204 5.70969C1.76204 4.78354 2.67548 4.04468 3.45127 3.60159C4.22707 4.04353 5.13937 4.78354 5.13937 5.70969C5.13937 6.90307 4.20432 7.48092 3.45127 7.48092ZM8.62705 5.69028C8.62705 4.76413 9.54049 4.02412 10.3151 3.58217C11.0909 4.02412 12.0032 4.76413 12.0032 5.69028C12.0032 6.88251 11.0682 7.4615 10.3151 7.4615C9.5621 7.4615 8.62705 6.88366 8.62705 5.69028ZM13.7346 1.90002C12.3388 1.90002 11.1023 2.24947 10.2617 2.688C9.42218 2.24947 8.2619 1.90002 6.86615 1.90002C5.47039 1.90002 4.31011 2.24947 3.47061 2.688C2.63111 2.24947 1.39575 1.90002 0 1.90002V2.688C0.824711 2.688 1.82574 2.84331 2.61177 3.1859C1.76318 3.75575 0.923676 4.6191 0.923676 5.70855C0.923676 7.1486 2.14539 8.24947 3.47061 8.24947C4.79584 8.24947 5.9584 7.1486 5.9584 5.70855C5.9584 4.6191 5.17805 3.75575 4.32945 3.1859C5.11548 2.84331 6.04144 2.688 6.86728 2.688C7.69313 2.688 8.61908 2.84331 9.40398 3.1859C8.55538 3.75575 7.77503 4.6191 7.77503 5.70855C7.77503 7.1486 8.93759 8.24947 10.2628 8.24947C11.588 8.24947 12.7904 7.1486 12.7904 5.70855C12.7904 4.6191 11.9703 3.75575 11.1205 3.1859C11.9066 2.84331 12.9099 2.688 13.7346 2.688V1.90002Z" fill="white"/>
</svg>
