<svg width="390" height="390" viewBox="0 0 390 390" fill="none" xmlns="http://www.w3.org/2000/svg">
<mask id="mask0_649_18659" style="mask-type:alpha" maskUnits="userSpaceOnUse" x="0" y="0" width="390" height="390">
<rect width="390" height="390" fill="#D9D9D9"/>
</mask>
<g mask="url(#mask0_649_18659)">
</g>
<g clip-path="url(#clip0_649_18659)">
<path fill-rule="evenodd" clip-rule="evenodd" d="M96.8062 359.531H91.1902H91.1861L93.7067 349.818H99.3227L96.8062 359.531ZM87.1547 355.82H81.7276V349.902H87.1547V355.82ZM61.2054 321.305C63.5372 321.301 65.9921 322.066 68.0817 323.725C70.1754 325.38 71.8503 327.892 72.8192 331.161C73.4678 333.342 73.8167 335.867 73.8167 338.759C73.8167 343.097 73.0326 346.612 71.6245 349.367C70.2287 352.125 68.1679 354.085 65.8854 355.159C64.3664 355.878 62.7654 356.213 61.2054 356.213C58.8736 356.213 56.4227 355.452 54.3373 353.793C52.2436 352.138 50.5645 349.626 49.5957 346.357C48.9471 344.171 48.594 341.651 48.594 338.755C48.5981 334.416 49.3822 330.906 50.7903 328.147C52.1861 325.393 54.2428 323.433 56.5254 322.359C58.0443 321.644 59.6495 321.305 61.2054 321.305ZM64.7482 349.429C65.8566 348.547 66.9158 347.114 67.626 344.752C68.0899 343.181 68.3896 341.2 68.3896 338.759C68.3896 336.017 68.016 333.852 67.4413 332.197C66.8665 330.538 66.1112 329.384 65.2983 328.578C64.7564 328.039 64.1899 327.65 63.6069 327.374C62.8311 327.002 62.0141 326.835 61.2136 326.835C60.0107 326.835 58.7915 327.207 57.6789 328.084C56.5664 328.966 55.5032 330.396 54.7971 332.761C54.3249 334.333 54.0294 336.314 54.0294 338.755C54.0294 341.501 54.4029 343.666 54.9777 345.321C55.5565 346.98 56.316 348.134 57.1247 348.94C57.6666 349.479 58.2332 349.868 58.8202 350.144C59.5961 350.512 60.4089 350.683 61.2095 350.683C62.4164 350.679 63.6316 350.311 64.7482 349.429ZM385.086 55.9973C387.639 60.7954 388.883 65.4806 389.487 69.3718H389.479C389.877 71.9715 389.992 74.2326 389.992 76.0172C389.992 78.0234 389.844 80.6356 389.31 83.6532C388.773 86.6667 387.849 90.0939 386.248 93.6507C385.18 96.0246 383.809 98.4529 382.073 100.823C379.761 103.987 376.781 107.033 373.099 109.683C369.511 112.27 365.492 114.256 361.161 115.585C356.821 116.926 352.199 117.666 347.071 118.059C343.647 118.318 339.99 118.423 335.979 118.423H320.284V173.651H300.694V33.6076H335.979C340.491 33.6076 344.559 33.7413 348.344 34.0799C352.129 34.4184 355.635 34.9659 358.972 35.8269C361.189 36.3995 363.328 37.1184 365.385 37.9961C368.127 39.1622 370.705 40.6292 373.099 42.3511C375.866 44.3406 378.234 46.5516 380.217 48.867C382.204 51.1867 383.809 53.6024 385.086 55.9973ZM367.848 86.5287C369.117 84.1548 369.79 81.6889 370.118 79.5657L370.11 79.5615C370.332 78.153 370.389 76.9075 370.389 76.0131C370.393 75.0058 370.311 73.5555 370.024 71.9255C369.736 70.2913 369.236 68.4857 368.431 66.6927C367.893 65.4974 367.22 64.3062 366.362 63.1401C365.217 61.5895 363.767 60.0765 361.78 58.6429C359.867 57.2762 357.979 56.3233 355.45 55.5334C352.938 54.7518 349.756 54.1792 345.597 53.8657C342.826 53.6526 339.633 53.5523 335.971 53.5523H320.276V98.4822H335.971C340.092 98.4822 343.619 98.3568 346.616 98.0851C349.617 97.8176 352.084 97.4081 354.141 96.8773C355.512 96.5178 356.71 96.1124 357.794 95.6485C359.247 95.0257 360.508 94.3068 361.785 93.3915C363.279 92.3174 364.465 91.1973 365.451 90.0479C366.436 88.8985 367.216 87.7199 367.848 86.5287ZM280.032 242.283C282.364 242.279 284.815 243.044 286.905 244.703V244.699C288.998 246.35 290.673 248.866 291.642 252.134C292.291 254.32 292.64 256.84 292.64 259.732C292.64 264.071 291.851 267.586 290.447 270.34C289.047 273.099 286.995 275.059 284.712 276.133C283.193 276.852 281.588 277.182 280.032 277.182C277.701 277.19 275.246 276.426 273.16 274.766C271.062 273.115 269.387 270.599 268.423 267.331C267.774 265.145 267.421 262.629 267.421 259.732C267.421 255.394 268.209 251.879 269.617 249.125C271.013 246.371 273.07 244.41 275.352 243.336C276.871 242.617 278.476 242.283 280.032 242.283ZM283.567 270.403C284.679 269.517 285.739 268.087 286.449 265.726L286.445 265.718C286.917 264.146 287.212 262.165 287.212 259.724C287.212 256.982 286.835 254.817 286.26 253.162C285.689 251.503 284.922 250.349 284.117 249.543C283.579 249.004 283.009 248.615 282.426 248.339C281.646 247.976 280.833 247.804 280.032 247.804C278.829 247.804 277.614 248.176 276.498 249.054C275.389 249.94 274.33 251.369 273.62 253.731C273.148 255.302 272.852 257.287 272.852 259.724C272.852 262.47 273.23 264.631 273.801 266.29C274.375 267.949 275.135 269.099 275.948 269.91C276.485 270.449 277.056 270.838 277.639 271.113C278.419 271.485 279.232 271.653 280.032 271.653C281.235 271.653 282.45 271.281 283.567 270.403ZM69.3461 232.202H74.7815V242.634H80.299V248.164H74.7815V276.689H69.3461V248.164H63.8286V242.634H69.3461V232.202ZM16.0557 276.701H10.6285V227.759H16.0557V276.701ZM131.188 253.25C130.913 254.362 130.74 255.82 130.74 257.701V257.71V276.71H125.309V242.617H130.74V244.582C131.282 244.185 131.853 243.838 132.436 243.545C134.201 242.672 136.085 242.279 137.92 242.279C138.639 242.279 139.365 242.341 140.088 242.467V248.143C139.39 247.921 138.663 247.804 137.92 247.804C136.837 247.804 135.773 248.034 134.817 248.506C133.856 248.987 132.986 249.702 132.231 250.784C131.824 251.378 131.463 252.138 131.188 253.25ZM320.141 243.537C321.902 244.41 323.528 245.773 324.788 247.604L324.792 247.599C325.621 248.795 326.253 250.232 326.664 251.9C327.074 253.568 327.276 255.474 327.276 257.697V276.697H321.849V257.697C321.849 255.816 321.672 254.358 321.397 253.246C321.118 252.134 320.757 251.373 320.35 250.784C319.595 249.702 318.72 248.987 317.764 248.506C316.803 248.034 315.744 247.804 314.664 247.804C313.585 247.804 312.521 248.034 311.561 248.506C310.604 248.987 309.734 249.702 308.974 250.784C308.572 251.378 308.207 252.138 307.932 253.25C307.657 254.362 307.48 255.82 307.48 257.701V276.701H302.053V242.609H307.48V244.573C308.026 244.176 308.593 243.829 309.18 243.537C310.941 242.663 312.821 242.27 314.66 242.27C316.499 242.27 318.38 242.663 320.141 243.537ZM169.359 243.533C171.116 244.406 172.741 245.769 174.002 247.599L173.993 247.595C174.823 248.79 175.455 250.228 175.865 251.896C176.284 253.564 176.481 255.469 176.481 257.693V276.693H171.05V257.693C171.05 255.812 170.882 254.353 170.602 253.242C170.331 252.13 169.966 251.369 169.56 250.78C168.804 249.697 167.934 248.983 166.973 248.502C166.017 248.03 164.962 247.8 163.878 247.8C162.794 247.8 161.731 248.03 160.77 248.502C159.81 248.983 158.939 249.697 158.188 250.78C157.782 251.373 157.42 252.134 157.141 253.246C156.866 254.358 156.694 255.816 156.694 257.697V276.697H151.263V242.605H156.694V244.569C157.24 244.172 157.81 243.825 158.393 243.533C160.159 242.659 162.043 242.266 163.878 242.266C165.713 242.266 167.593 242.659 169.359 243.533ZM49.0825 276.693V257.693L49.0866 257.689C49.0866 255.808 48.9142 254.349 48.6351 253.238C48.36 252.126 48.0028 251.365 47.5923 250.776C46.8411 249.693 45.9707 248.979 45.0101 248.498C44.0495 248.026 42.9862 247.796 41.9065 247.796C40.8268 247.796 39.7636 248.026 38.8071 248.498C37.8423 248.979 36.9761 249.693 36.2207 250.776C35.8102 251.369 35.4489 252.13 35.1739 253.242C34.8947 254.353 34.7223 255.812 34.7264 257.693V276.693H29.2952V242.601H34.7223V244.565C35.2724 244.168 35.8389 243.821 36.4219 243.528C38.1831 242.655 40.0674 242.262 41.9024 242.262C43.7375 242.262 45.6218 242.655 47.3829 243.528C49.1441 244.402 50.7698 245.765 52.0301 247.595C52.8635 248.79 53.4957 250.228 53.9021 251.896C54.3126 253.564 54.5138 255.469 54.5138 257.693V276.693H49.0825ZM36.036 173.931C30.6458 171.837 25.4526 168.623 20.8178 164.255L20.8342 164.28C17.7429 161.372 14.9021 157.961 12.3897 154.066C9.03979 148.875 6.27695 142.823 4.22842 135.935C1.49432 126.748 0 116.065 0 103.753C0 89.7971 2.11832 77.8938 5.88695 67.9215C9.64737 57.9491 15.0951 49.937 21.5116 43.977C25.7852 40.0022 30.4734 36.9387 35.3094 34.7528C41.7628 31.8355 48.4667 30.4688 54.912 30.4688C59.1363 30.4688 63.1266 30.8157 66.9199 31.5889C70.7255 32.3746 74.3545 33.6285 77.7126 35.3797C79.9582 36.5416 82.0765 37.9208 84.0594 39.4882C86.7032 41.5696 89.0965 43.9728 91.2969 46.6268C93.0171 48.6957 94.614 50.9651 96.0344 53.452C97.4589 55.9304 98.7111 58.622 99.7825 61.5185C101.182 65.3135 102.27 69.4679 103.075 74.0529H83.07C82.7785 72.799 82.4624 71.6245 82.1217 70.5379C81.4689 68.4398 80.7341 66.6342 79.9377 65.0418C78.8703 62.9144 77.6962 61.1423 76.3374 59.5039C74.6912 57.527 73.1188 56.0266 71.5301 54.8479C69.9373 53.6651 68.3239 52.7916 66.4396 52.0978C65.1793 51.6339 63.804 51.2577 62.2358 50.9777C60.1503 50.6015 57.7241 50.3967 54.8956 50.3967C50.7082 50.3926 46.1514 51.404 41.7834 53.6735C37.4072 55.9471 33.1952 59.4496 29.5538 64.6573C27.1317 68.1388 24.9641 72.3852 23.2686 77.5887C21.0066 84.5184 19.578 93.1449 19.578 103.732C19.578 112.739 20.5017 120.362 22.0412 126.719C23.5847 133.084 25.7359 138.179 28.1991 142.221C29.8412 144.917 31.6228 147.153 33.4866 149.008C35.9662 151.479 38.6059 153.28 41.3195 154.567C44.9321 156.277 48.7131 157.062 52.4324 157.062C55.77 157.062 59.1527 156.431 62.4205 155.069C65.6842 153.702 68.8535 151.617 71.801 148.574C73.7675 146.534 75.6395 144.068 77.3432 141.063C78.8703 138.359 80.2579 135.216 81.4361 131.588H61.8417V111.639H103.777V173.739H84.1825V164.117C82.5322 165.681 80.8162 167.114 79.0386 168.389C75.5122 170.922 71.7682 172.874 67.9339 174.27C62.8311 176.134 57.5763 177.007 52.4365 177.007C46.9971 177.007 41.4262 176.029 36.036 173.931ZM29.4471 349.484C30.9455 348.669 32.3454 347.415 33.5482 345.526H33.54C33.9177 344.932 34.2707 344.272 34.5992 343.549H40.4409C39.3161 346.901 37.6617 349.596 35.6419 351.624C34.2954 352.974 32.7928 354.018 31.2123 354.762C29.1022 355.753 26.8566 356.208 24.6603 356.208C22.1848 356.208 19.6601 355.636 17.3242 354.37C14.9924 353.103 12.8741 351.147 11.2156 348.527C10.1031 346.78 9.19579 344.736 8.51842 342.404C7.61526 339.29 7.12263 335.654 7.12263 331.441C7.12674 326.701 7.74663 322.693 8.87558 319.337C10.0086 315.985 11.6589 313.285 13.6828 311.258C15.0253 309.908 16.5278 308.863 18.1124 308.119C20.2266 307.124 22.464 306.673 24.6644 306.673C27.1399 306.669 29.6687 307.245 32.0005 308.512C34.3364 309.774 36.4506 311.73 38.1133 314.351C39.0328 315.801 39.8087 317.473 40.4368 319.328H34.6074C33.8151 317.577 32.8667 316.227 31.8363 315.191C30.9291 314.279 29.9561 313.615 28.938 313.134C27.5833 312.499 26.1341 312.198 24.6603 312.198C23.0059 312.198 21.3843 312.578 19.8818 313.389C18.3793 314.208 16.9794 315.462 15.7765 317.351C14.9801 318.609 14.274 320.156 13.728 322.041C12.9973 324.549 12.558 327.662 12.558 331.436C12.558 335.687 13.1204 339.089 14.0154 341.747C14.9103 344.41 16.1378 346.32 17.4925 347.682C18.3998 348.589 19.3727 349.262 20.3908 349.739C21.7456 350.378 23.1906 350.679 24.6644 350.679C26.3188 350.675 27.9404 350.299 29.4471 349.484ZM256.538 233.276H251.111V227.688H256.538V233.276ZM256.538 276.714H251.111V242.617H256.538V276.714ZM222.809 355.816H217.382V349.897H222.809V355.816ZM228.799 232.215H234.23V242.647H239.747V248.176H234.23V276.701H228.799V248.176H223.277V242.647H228.799V232.215ZM356.7 244.819C356.755 244.868 356.81 244.918 356.866 244.966V242.617H362.294V276.71H356.866V274.507C356.086 275.176 355.245 275.719 354.37 276.129C352.851 276.852 351.246 277.182 349.69 277.182C347.359 277.19 344.904 276.426 342.818 274.766C340.725 273.115 339.045 270.599 338.081 267.331C337.428 265.145 337.079 262.629 337.079 259.732C337.079 255.394 337.859 251.879 339.271 249.125C340.671 246.371 342.724 244.41 345.006 243.336C346.525 242.617 348.13 242.283 349.686 242.283C352.018 242.279 354.469 243.044 356.559 244.703C356.607 244.739 356.654 244.778 356.7 244.819ZM353.221 270.403C354.333 269.517 355.393 268.087 356.099 265.726L356.095 265.718C356.567 264.146 356.862 262.165 356.862 259.724C356.862 256.982 356.485 254.817 355.914 253.162C355.339 251.503 354.58 250.349 353.767 249.543C353.225 249.004 352.659 248.615 352.076 248.339C351.3 247.976 350.487 247.804 349.686 247.804C348.483 247.804 347.264 248.176 346.152 249.054C345.039 249.94 343.98 251.369 343.274 253.731C342.806 255.302 342.506 257.287 342.506 259.724C342.506 262.47 342.884 264.631 343.459 266.29C344.029 267.949 344.793 269.099 345.602 269.91C346.143 270.449 346.71 270.838 347.297 271.113C348.073 271.485 348.886 271.653 349.686 271.653C350.889 271.653 352.108 271.281 353.221 270.403ZM157.277 33.758L201.466 139.458L201.482 139.471L245.684 33.758H263.238V173.651H243.643V89.5714L208.465 173.701H194.499L159.317 89.5714V173.651H139.727V33.758H157.277ZM206.496 244.854C206.534 244.888 206.573 244.923 206.614 244.958H206.618V242.605H212.045V276.697H206.618V274.495C205.834 275.163 204.992 275.707 204.118 276.12C202.599 276.839 200.994 277.169 199.438 277.169C197.102 277.178 194.651 276.413 192.561 274.754C190.472 273.103 188.793 270.587 187.824 267.318C187.175 265.132 186.822 262.616 186.822 259.72C186.822 255.382 187.611 251.867 189.019 249.112C190.414 246.358 192.467 244.398 194.754 243.324C196.269 242.605 197.874 242.27 199.434 242.27C201.765 242.266 204.216 243.031 206.306 244.69C206.37 244.742 206.432 244.798 206.496 244.854ZM202.964 270.394C204.077 269.508 205.136 268.079 205.846 265.718L205.842 265.709C206.31 264.138 206.61 262.157 206.61 259.716C206.61 256.974 206.236 254.809 205.661 253.154C205.083 251.495 204.323 250.341 203.514 249.534C202.972 248.995 202.402 248.607 201.819 248.331C201.043 247.967 200.226 247.796 199.43 247.796C198.223 247.796 197.007 248.168 195.891 249.045C194.782 249.932 193.723 251.361 193.013 253.722C192.545 255.294 192.249 257.275 192.249 259.716C192.249 262.462 192.627 264.627 193.202 266.282C193.777 267.941 194.532 269.09 195.345 269.901C195.883 270.44 196.453 270.829 197.036 271.105C197.812 271.477 198.625 271.644 199.43 271.644C200.632 271.644 201.852 271.272 202.964 270.394ZM124.106 306.773H129.533V350.269H147.728V355.799H124.106V306.773ZM161.928 311.312H167.359V321.744H172.877V327.274H167.359V355.799H161.928V327.274H156.411V321.744H161.928V311.312ZM108.646 244.682C110.448 246.111 111.942 248.176 112.94 250.818L112.936 250.809C113.367 252.009 113.609 253.129 113.831 254.604C114.126 256.539 114.176 258.428 114.13 260.777H94.6099C94.6961 263.022 95.0451 264.84 95.5377 266.273C96.1165 267.933 96.876 269.082 97.6847 269.893C98.2266 270.432 98.7932 270.821 99.3802 271.097C100.156 271.469 100.973 271.636 101.774 271.636C102.8 271.632 103.839 271.36 104.807 270.741C105.78 270.119 106.712 269.136 107.476 267.561C107.554 267.402 107.624 267.226 107.693 267.059L113.437 267.105C112.87 269.082 112.065 270.787 111.047 272.204C109.606 274.223 107.751 275.631 105.776 276.405C104.458 276.923 103.104 277.161 101.774 277.161C99.4377 277.169 96.9868 276.405 94.8973 274.745C92.8036 273.094 91.1245 270.578 90.1598 267.31C89.507 265.124 89.1581 262.608 89.1581 259.712C89.1622 255.373 89.9504 251.858 91.3503 249.104C92.7543 246.35 94.8069 244.389 97.0895 243.315C98.6125 242.596 100.218 242.262 101.774 242.262C104.105 242.258 106.556 243.023 108.646 244.682ZM95.3529 253.714C95.2134 254.19 95.0943 254.705 94.9876 255.252H108.366C108.229 253.138 107.209 251.226 106.477 250.23C106.474 250.227 106.472 250.224 106.469 250.221L106.466 250.22V250.217C106.267 249.962 106.062 249.733 105.854 249.526C105.312 248.987 104.746 248.598 104.159 248.322C103.383 247.959 102.57 247.787 101.769 247.787C100.563 247.787 99.3474 248.159 98.2348 249.037C97.1223 249.923 96.0632 251.353 95.3529 253.714ZM202.218 323.879C202.249 323.906 202.28 323.933 202.311 323.959V306.765H207.739V355.786H202.311V353.5C201.527 354.169 200.686 354.716 199.807 355.126C198.288 355.845 196.683 356.179 195.127 356.179C192.795 356.179 190.345 355.419 188.259 353.759C186.161 352.104 184.482 349.592 183.518 346.324C182.869 344.138 182.52 341.618 182.52 338.721C182.52 334.383 183.304 330.872 184.712 328.114C186.112 325.359 188.165 323.399 190.451 322.325C191.97 321.61 193.571 321.272 195.131 321.272C197.459 321.268 199.914 322.033 201.999 323.692C202.074 323.75 202.145 323.815 202.218 323.879ZM198.662 349.396C199.77 348.514 200.834 347.08 201.54 344.719H201.531C202.004 343.147 202.303 341.166 202.303 338.726C202.303 335.984 201.926 333.819 201.351 332.164C200.78 330.504 200.017 329.351 199.208 328.544C198.666 328.005 198.095 327.616 197.512 327.341C196.737 326.969 195.924 326.801 195.123 326.801C193.92 326.801 192.705 327.173 191.589 328.051C190.48 328.933 189.421 330.362 188.711 332.728C188.243 334.299 187.943 336.281 187.943 338.721C187.943 341.467 188.325 343.632 188.895 345.287C189.474 346.947 190.23 348.1 191.043 348.907C191.58 349.446 192.151 349.835 192.734 350.111C193.514 350.478 194.327 350.65 195.127 350.65C196.33 350.646 197.549 350.278 198.662 349.396ZM380.964 276.685H375.533V227.742H380.964V276.685Z" fill="#27305A"/>
</g>
<defs>
<clipPath id="clip0_649_18659">
<rect width="390" height="329.062" fill="white" transform="translate(0 30.4688)"/>
</clipPath>
</defs>
</svg>
