<?xml version="1.0" standalone="no"?>
<!DOCTYPE svg PUBLIC "-//W3C//DTD SVG 20010904//EN"
 "http://www.w3.org/TR/2001/REC-SVG-20010904/DTD/svg10.dtd">
<svg version="1.0" xmlns="http://www.w3.org/2000/svg"
 width="320.000000pt" height="320.000000pt" viewBox="0 0 320.000000 320.000000"
 preserveAspectRatio="xMidYMid meet">
<metadata>
Created by potrace 1.14, written by Peter Selinger 2001-2017
</metadata>
<g transform="translate(0.000000,320.000000) scale(0.100000,-0.100000)"
fill="#000000" stroke="none">
<path d="M1540 2928 c-119 -17 -243 -107 -295 -213 -14 -28 -31 -80 -39 -116
l-13 -64 -214 -1 c-128 -1 -230 -6 -254 -13 -62 -17 -126 -71 -160 -132 -29
-54 -29 -55 -30 -221 l0 -168 -27 -1 c-16 -1 -31 -2 -35 -3 -5 -1 -24 -6 -43
-10 -137 -32 -262 -167 -289 -311 -42 -223 118 -445 340 -471 l54 -6 0 -292
c0 -254 2 -297 18 -336 21 -56 72 -111 129 -142 l43 -23 875 0 875 0 43 23
c55 29 98 75 125 132 20 42 21 63 23 335 1 160 3 292 3 295 1 3 31 11 67 18
224 42 368 256 322 477 -32 153 -184 293 -336 311 l-57 6 0 167 c-1 164 -1
166 -30 219 -31 58 -81 103 -142 129 -31 13 -78 16 -265 17 -198 0 -228 2
-228 16 -2 49 -15 102 -41 156 -73 155 -246 246 -419 222z m-252 -1082 c130
-68 148 -241 37 -334 -102 -83 -258 -43 -310 80 -33 80 -4 180 67 237 50 39
149 47 206 17z m801 0 c125 -65 147 -240 41 -330 -44 -37 -75 -48 -132 -47
-110 0 -198 92 -198 206 0 38 34 112 63 138 60 53 159 67 226 33z m45 -774 c1
-72 -3 -127 -9 -131 -5 -4 -246 -7 -535 -7 l-524 1 -1 115 c0 63 1 123 4 133
3 16 35 17 534 15 l531 -3 0 -123z"/>
</g>
</svg>
